<mxfile host="app.diagrams.net" modified="2021-09-28T07:56:39.264Z" agent="5.0 (Windows NT 10.0; Win64; x64) AppleWebKit/537.36 (KHTML, like Gecko) Chrome/93.0.4577.82 Safari/537.36" etag="A_mze-CkreDHizZC1FoV" version="15.3.5" type="github" pages="2">
  <diagram id="N490leOHm8_DPhioPEtF" name="Highway">
    <mxGraphModel dx="1902" dy="1010" grid="1" gridSize="10" guides="1" tooltips="1" connect="1" arrows="1" fold="1" page="1" pageScale="1" pageWidth="850" pageHeight="1100" math="0" shadow="0">
      <root>
        <mxCell id="0" />
        <mxCell id="1" parent="0" />
        <mxCell id="oxp_F_evn7D7A8AiOKPo-36" value="I" style="aspect=fixed;perimeter=ellipsePerimeter;html=1;align=center;shadow=0;dashed=0;spacingTop=3;image;image=img/lib/active_directory/internet_cloud.svg;fontSize=15;" parent="1" vertex="1">
          <mxGeometry x="560" y="260" width="280" height="176.4" as="geometry" />
        </mxCell>
        <mxCell id="oxp_F_evn7D7A8AiOKPo-8" value="AMF" style="rounded=1;whiteSpace=wrap;html=1;absoluteArcSize=1;arcSize=14;strokeWidth=2;fillColor=#dae8fc;strokeColor=#6c8ebf;" parent="1" vertex="1">
          <mxGeometry x="330" y="80" width="55" height="40" as="geometry" />
        </mxCell>
        <mxCell id="oxp_F_evn7D7A8AiOKPo-24" value="" style="edgeStyle=orthogonalEdgeStyle;rounded=0;orthogonalLoop=1;jettySize=auto;html=1;fontSize=15;" parent="1" source="oxp_F_evn7D7A8AiOKPo-9" target="oxp_F_evn7D7A8AiOKPo-7" edge="1">
          <mxGeometry relative="1" as="geometry" />
        </mxCell>
        <mxCell id="oxp_F_evn7D7A8AiOKPo-9" value="SMF" style="rounded=1;whiteSpace=wrap;html=1;absoluteArcSize=1;arcSize=14;strokeWidth=2;fillColor=#dae8fc;strokeColor=#6c8ebf;" parent="1" vertex="1">
          <mxGeometry x="290" y="190" width="60" height="50" as="geometry" />
        </mxCell>
        <mxCell id="oxp_F_evn7D7A8AiOKPo-11" value="" style="strokeWidth=2;html=1;shape=mxgraph.flowchart.direct_data;whiteSpace=wrap;fillColor=#ffe6cc;strokeColor=#d79b00;" parent="1" vertex="1">
          <mxGeometry x="150" y="330" width="450" height="60" as="geometry" />
        </mxCell>
        <mxCell id="oxp_F_evn7D7A8AiOKPo-13" value="" style="edgeStyle=orthogonalEdgeStyle;rounded=0;orthogonalLoop=1;jettySize=auto;html=1;" parent="1" source="oxp_F_evn7D7A8AiOKPo-12" target="oxp_F_evn7D7A8AiOKPo-11" edge="1">
          <mxGeometry relative="1" as="geometry" />
        </mxCell>
        <mxCell id="oxp_F_evn7D7A8AiOKPo-12" value="UE" style="text;html=1;strokeColor=none;fillColor=none;align=center;verticalAlign=middle;whiteSpace=wrap;rounded=0;fontSize=15;" parent="1" vertex="1">
          <mxGeometry x="10" y="340" width="40" height="40" as="geometry" />
        </mxCell>
        <mxCell id="oxp_F_evn7D7A8AiOKPo-14" value="sGI/ N6&amp;nbsp;" style="text;html=1;strokeColor=none;fillColor=none;align=center;verticalAlign=middle;whiteSpace=wrap;rounded=0;fontSize=15;" parent="1" vertex="1">
          <mxGeometry x="420" y="300" width="110" height="20" as="geometry" />
        </mxCell>
        <mxCell id="oxp_F_evn7D7A8AiOKPo-17" value="SIP traffic" style="text;html=1;strokeColor=none;fillColor=none;align=center;verticalAlign=middle;whiteSpace=wrap;rounded=0;fontSize=15;" parent="1" vertex="1">
          <mxGeometry x="190" y="350" width="80" height="20" as="geometry" />
        </mxCell>
        <mxCell id="oxp_F_evn7D7A8AiOKPo-18" value="P CSCF/ SBC" style="rounded=1;whiteSpace=wrap;html=1;absoluteArcSize=1;arcSize=14;strokeWidth=2;fontSize=15;" parent="1" vertex="1">
          <mxGeometry x="590" y="340" width="80" height="40" as="geometry" />
        </mxCell>
        <mxCell id="oxp_F_evn7D7A8AiOKPo-7" value="UPF" style="rounded=1;whiteSpace=wrap;html=1;absoluteArcSize=1;arcSize=14;strokeWidth=2;fillColor=#dae8fc;strokeColor=#6c8ebf;" parent="1" vertex="1">
          <mxGeometry x="280" y="307.5" width="80" height="105" as="geometry" />
        </mxCell>
        <mxCell id="oxp_F_evn7D7A8AiOKPo-23" value="" style="endArrow=none;html=1;fontSize=15;" parent="1" edge="1">
          <mxGeometry width="50" height="50" relative="1" as="geometry">
            <mxPoint x="240" y="160" as="sourcePoint" />
            <mxPoint x="440" y="160" as="targetPoint" />
          </mxGeometry>
        </mxCell>
        <mxCell id="oxp_F_evn7D7A8AiOKPo-27" value="" style="endArrow=none;html=1;fontSize=15;entryX=0.394;entryY=-0.005;entryDx=0;entryDy=0;entryPerimeter=0;" parent="1" edge="1">
          <mxGeometry width="50" height="50" relative="1" as="geometry">
            <mxPoint x="310" y="160" as="sourcePoint" />
            <mxPoint x="309.6400000000001" y="189.75" as="targetPoint" />
          </mxGeometry>
        </mxCell>
        <mxCell id="oxp_F_evn7D7A8AiOKPo-28" value="" style="endArrow=none;html=1;fontSize=15;" parent="1" edge="1">
          <mxGeometry width="50" height="50" relative="1" as="geometry">
            <mxPoint x="358" y="160" as="sourcePoint" />
            <mxPoint x="358" y="120" as="targetPoint" />
          </mxGeometry>
        </mxCell>
        <mxCell id="oxp_F_evn7D7A8AiOKPo-35" style="edgeStyle=orthogonalEdgeStyle;rounded=0;orthogonalLoop=1;jettySize=auto;html=1;fontSize=15;" parent="1" source="oxp_F_evn7D7A8AiOKPo-32" edge="1">
          <mxGeometry relative="1" as="geometry">
            <mxPoint x="300" y="308" as="targetPoint" />
            <Array as="points">
              <mxPoint x="300" y="215" />
              <mxPoint x="300" y="308" />
            </Array>
          </mxGeometry>
        </mxCell>
        <mxCell id="oxp_F_evn7D7A8AiOKPo-32" value="SGW" style="rounded=1;whiteSpace=wrap;html=1;absoluteArcSize=1;arcSize=14;strokeWidth=2;fillColor=#dae8fc;strokeColor=#6c8ebf;" parent="1" vertex="1">
          <mxGeometry x="180" y="190" width="60" height="50" as="geometry" />
        </mxCell>
        <mxCell id="oxp_F_evn7D7A8AiOKPo-34" style="edgeStyle=orthogonalEdgeStyle;rounded=0;orthogonalLoop=1;jettySize=auto;html=1;entryX=0.5;entryY=0;entryDx=0;entryDy=0;fontSize=15;" parent="1" source="oxp_F_evn7D7A8AiOKPo-33" target="oxp_F_evn7D7A8AiOKPo-32" edge="1">
          <mxGeometry relative="1" as="geometry" />
        </mxCell>
        <mxCell id="oxp_F_evn7D7A8AiOKPo-33" value="MME" style="rounded=1;whiteSpace=wrap;html=1;absoluteArcSize=1;arcSize=14;strokeWidth=2;fillColor=#dae8fc;strokeColor=#6c8ebf;" parent="1" vertex="1">
          <mxGeometry x="185" y="80" width="50" height="45" as="geometry" />
        </mxCell>
        <mxCell id="oxp_F_evn7D7A8AiOKPo-38" value="IMS" style="text;html=1;strokeColor=none;fillColor=none;align=center;verticalAlign=middle;whiteSpace=wrap;rounded=0;fontSize=15;" parent="1" vertex="1">
          <mxGeometry x="710" y="345" width="40" height="45" as="geometry" />
        </mxCell>
        <mxCell id="q3JWiKaGca92LnTlH6Dv-12" value="" style="edgeStyle=orthogonalEdgeStyle;rounded=0;orthogonalLoop=1;jettySize=auto;html=1;endArrow=open;startSize=14;endSize=14;sourcePerimeterSpacing=8;targetPerimeterSpacing=8;exitX=0.5;exitY=1;exitDx=0;exitDy=0;entryX=0.5;entryY=0;entryDx=0;entryDy=0;" edge="1" parent="1" source="q3JWiKaGca92LnTlH6Dv-4" target="q3JWiKaGca92LnTlH6Dv-11">
          <mxGeometry relative="1" as="geometry">
            <Array as="points">
              <mxPoint x="360" y="659" />
              <mxPoint x="210" y="659" />
            </Array>
          </mxGeometry>
        </mxCell>
        <mxCell id="q3JWiKaGca92LnTlH6Dv-19" style="edgeStyle=orthogonalEdgeStyle;rounded=0;orthogonalLoop=1;jettySize=auto;html=1;entryX=0.583;entryY=0;entryDx=0;entryDy=0;entryPerimeter=0;endArrow=open;startSize=14;endSize=14;sourcePerimeterSpacing=8;targetPerimeterSpacing=8;" edge="1" parent="1" source="q3JWiKaGca92LnTlH6Dv-4" target="q3JWiKaGca92LnTlH6Dv-14">
          <mxGeometry relative="1" as="geometry">
            <Array as="points">
              <mxPoint x="360" y="660" />
              <mxPoint x="480" y="660" />
            </Array>
          </mxGeometry>
        </mxCell>
        <mxCell id="q3JWiKaGca92LnTlH6Dv-4" value="SPG" style="rounded=1;whiteSpace=wrap;html=1;absoluteArcSize=1;arcSize=14;strokeWidth=2;fillColor=#d5e8d4;strokeColor=#82b366;" vertex="1" parent="1">
          <mxGeometry x="270" y="529.99" width="180" height="70" as="geometry" />
        </mxCell>
        <mxCell id="q3JWiKaGca92LnTlH6Dv-13" style="edgeStyle=orthogonalEdgeStyle;rounded=0;orthogonalLoop=1;jettySize=auto;html=1;entryX=1;entryY=0.5;entryDx=0;entryDy=0;endArrow=open;startSize=14;endSize=14;targetPerimeterSpacing=8;exitX=0;exitY=0.5;exitDx=0;exitDy=0;startArrow=none;" edge="1" parent="1" source="q3JWiKaGca92LnTlH6Dv-26" target="q3JWiKaGca92LnTlH6Dv-4">
          <mxGeometry relative="1" as="geometry">
            <Array as="points" />
          </mxGeometry>
        </mxCell>
        <mxCell id="q3JWiKaGca92LnTlH6Dv-21" value="" style="edgeStyle=orthogonalEdgeStyle;rounded=0;orthogonalLoop=1;jettySize=auto;html=1;endArrow=open;startSize=14;endSize=14;sourcePerimeterSpacing=8;targetPerimeterSpacing=8;" edge="1" parent="1" source="q3JWiKaGca92LnTlH6Dv-6" target="q3JWiKaGca92LnTlH6Dv-20">
          <mxGeometry relative="1" as="geometry">
            <Array as="points">
              <mxPoint x="695" y="630" />
              <mxPoint x="695" y="630" />
            </Array>
          </mxGeometry>
        </mxCell>
        <mxCell id="q3JWiKaGca92LnTlH6Dv-6" value="Provisioning / Billing System" style="rounded=1;whiteSpace=wrap;html=1;absoluteArcSize=1;arcSize=14;strokeWidth=2;fillColor=#dae8fc;strokeColor=#6c8ebf;" vertex="1" parent="1">
          <mxGeometry x="590" y="524.37" width="160" height="81.25" as="geometry" />
        </mxCell>
        <mxCell id="q3JWiKaGca92LnTlH6Dv-11" value="ATS" style="whiteSpace=wrap;html=1;rounded=1;strokeColor=#6c8ebf;strokeWidth=2;fillColor=#dae8fc;arcSize=14;" vertex="1" parent="1">
          <mxGeometry x="150" y="717.5" width="120" height="52.5" as="geometry" />
        </mxCell>
        <mxCell id="q3JWiKaGca92LnTlH6Dv-14" value="ATS" style="whiteSpace=wrap;html=1;rounded=1;strokeColor=#6c8ebf;strokeWidth=2;fillColor=#dae8fc;arcSize=14;" vertex="1" parent="1">
          <mxGeometry x="410" y="720" width="120" height="50" as="geometry" />
        </mxCell>
        <mxCell id="q3JWiKaGca92LnTlH6Dv-20" value="IMS HSS &amp;amp; UDM" style="whiteSpace=wrap;html=1;rounded=1;strokeColor=#6c8ebf;strokeWidth=2;fillColor=#dae8fc;arcSize=14;" vertex="1" parent="1">
          <mxGeometry x="620" y="713.75" width="150" height="56.26" as="geometry" />
        </mxCell>
        <mxCell id="q3JWiKaGca92LnTlH6Dv-22" value="https://10.192.21.146:8080/spg" style="text;html=1;strokeColor=none;fillColor=none;align=center;verticalAlign=middle;whiteSpace=wrap;rounded=0;hachureGap=4;pointerEvents=0;" vertex="1" parent="1">
          <mxGeometry x="300" y="570" width="120" height="20" as="geometry" />
        </mxCell>
        <mxCell id="q3JWiKaGca92LnTlH6Dv-26" value="http" style="text;html=1;strokeColor=none;fillColor=none;align=center;verticalAlign=middle;whiteSpace=wrap;rounded=0;hachureGap=4;pointerEvents=0;" vertex="1" parent="1">
          <mxGeometry x="500" y="554.99" width="40" height="20" as="geometry" />
        </mxCell>
        <mxCell id="q3JWiKaGca92LnTlH6Dv-27" value="" style="edgeStyle=orthogonalEdgeStyle;rounded=0;orthogonalLoop=1;jettySize=auto;html=1;entryX=1;entryY=0.5;entryDx=0;entryDy=0;endArrow=none;startSize=14;endSize=14;sourcePerimeterSpacing=8;exitX=0;exitY=0.5;exitDx=0;exitDy=0;" edge="1" parent="1" source="q3JWiKaGca92LnTlH6Dv-6" target="q3JWiKaGca92LnTlH6Dv-26">
          <mxGeometry relative="1" as="geometry">
            <mxPoint x="590" y="564.9949999999999" as="sourcePoint" />
            <mxPoint x="450" y="564.99" as="targetPoint" />
            <Array as="points">
              <mxPoint x="530" y="565" />
            </Array>
          </mxGeometry>
        </mxCell>
        <mxCell id="q3JWiKaGca92LnTlH6Dv-30" value="http" style="text;html=1;strokeColor=none;fillColor=none;align=center;verticalAlign=middle;whiteSpace=wrap;rounded=0;hachureGap=4;pointerEvents=0;" vertex="1" parent="1">
          <mxGeometry x="660" y="640" width="40" height="20" as="geometry" />
        </mxCell>
      </root>
    </mxGraphModel>
  </diagram>
  <diagram id="qA2X27_UTVyOft9VFzqO" name="Dedicated bearer">
    <mxGraphModel dx="1052" dy="633" grid="1" gridSize="10" guides="1" tooltips="1" connect="1" arrows="1" fold="1" page="1" pageScale="1" pageWidth="850" pageHeight="1100" math="0" shadow="0">
      <root>
        <mxCell id="Z-0bPILdyS5AmYQFrGZD-0" />
        <mxCell id="Z-0bPILdyS5AmYQFrGZD-1" parent="Z-0bPILdyS5AmYQFrGZD-0" />
        <mxCell id="Z-0bPILdyS5AmYQFrGZD-4" value="" style="shape=cylinder3;whiteSpace=wrap;html=1;boundedLbl=1;backgroundOutline=1;size=15;rotation=-90;" vertex="1" parent="Z-0bPILdyS5AmYQFrGZD-1">
          <mxGeometry x="350" y="240" width="40" height="210" as="geometry" />
        </mxCell>
        <mxCell id="Z-0bPILdyS5AmYQFrGZD-5" value="Dedicated bearer" style="text;html=1;strokeColor=#6c8ebf;fillColor=#dae8fc;align=center;verticalAlign=middle;whiteSpace=wrap;rounded=0;" vertex="1" parent="Z-0bPILdyS5AmYQFrGZD-1">
          <mxGeometry x="320" y="335" width="100" height="20" as="geometry" />
        </mxCell>
        <mxCell id="Z-0bPILdyS5AmYQFrGZD-6" value="" style="endArrow=none;html=1;strokeWidth=2;fillColor=#dae8fc;strokeColor=#6c8ebf;" edge="1" parent="Z-0bPILdyS5AmYQFrGZD-1">
          <mxGeometry width="50" height="50" relative="1" as="geometry">
            <mxPoint x="560" y="410" as="sourcePoint" />
            <mxPoint x="560" y="250" as="targetPoint" />
          </mxGeometry>
        </mxCell>
        <mxCell id="Z-0bPILdyS5AmYQFrGZD-9" value="" style="endArrow=none;html=1;strokeWidth=2;fillColor=#dae8fc;strokeColor=#6c8ebf;" edge="1" parent="Z-0bPILdyS5AmYQFrGZD-1">
          <mxGeometry width="50" height="50" relative="1" as="geometry">
            <mxPoint x="680" y="420" as="sourcePoint" />
            <mxPoint x="680" y="250" as="targetPoint" />
          </mxGeometry>
        </mxCell>
        <mxCell id="Z-0bPILdyS5AmYQFrGZD-10" value="" style="endArrow=none;dashed=1;html=1;dashPattern=1 3;strokeWidth=3;fillColor=#dae8fc;strokeColor=#6c8ebf;" edge="1" parent="Z-0bPILdyS5AmYQFrGZD-1">
          <mxGeometry width="50" height="50" relative="1" as="geometry">
            <mxPoint x="480" y="380" as="sourcePoint" />
            <mxPoint x="480" y="280" as="targetPoint" />
          </mxGeometry>
        </mxCell>
        <mxCell id="Z-0bPILdyS5AmYQFrGZD-14" value="" style="aspect=fixed;pointerEvents=1;shadow=0;dashed=0;html=1;strokeColor=none;labelPosition=center;verticalLabelPosition=bottom;verticalAlign=top;align=center;fillColor=#00188D;shape=mxgraph.mscae.enterprise.android_phone" vertex="1" parent="Z-0bPILdyS5AmYQFrGZD-1">
          <mxGeometry x="230" y="320" width="30" height="50" as="geometry" />
        </mxCell>
        <mxCell id="Z-0bPILdyS5AmYQFrGZD-15" value="" style="endArrow=classic;html=1;strokeWidth=1;fillColor=#dae8fc;strokeColor=#6c8ebf;" edge="1" parent="Z-0bPILdyS5AmYQFrGZD-1">
          <mxGeometry width="50" height="50" relative="1" as="geometry">
            <mxPoint x="680" y="300" as="sourcePoint" />
            <mxPoint x="560" y="300" as="targetPoint" />
          </mxGeometry>
        </mxCell>
        <mxCell id="Z-0bPILdyS5AmYQFrGZD-16" value="" style="endArrow=classic;html=1;strokeWidth=1;fillColor=#dae8fc;strokeColor=#6c8ebf;" edge="1" parent="Z-0bPILdyS5AmYQFrGZD-1">
          <mxGeometry width="50" height="50" relative="1" as="geometry">
            <mxPoint x="560" y="320" as="sourcePoint" />
            <mxPoint x="470" y="320" as="targetPoint" />
          </mxGeometry>
        </mxCell>
        <mxCell id="Z-0bPILdyS5AmYQFrGZD-17" value="" style="endArrow=classic;html=1;strokeWidth=1;fillColor=#dae8fc;strokeColor=#6c8ebf;" edge="1" parent="Z-0bPILdyS5AmYQFrGZD-1">
          <mxGeometry width="50" height="50" relative="1" as="geometry">
            <mxPoint x="480" y="366" as="sourcePoint" />
            <mxPoint x="560" y="366" as="targetPoint" />
          </mxGeometry>
        </mxCell>
        <mxCell id="Z-0bPILdyS5AmYQFrGZD-18" value="" style="endArrow=classic;html=1;strokeWidth=1;fillColor=#dae8fc;strokeColor=#6c8ebf;" edge="1" parent="Z-0bPILdyS5AmYQFrGZD-1">
          <mxGeometry width="50" height="50" relative="1" as="geometry">
            <mxPoint x="560" y="390" as="sourcePoint" />
            <mxPoint x="680" y="390" as="targetPoint" />
          </mxGeometry>
        </mxCell>
        <mxCell id="Z-0bPILdyS5AmYQFrGZD-19" value="SA Core" style="text;html=1;strokeColor=none;fillColor=none;align=center;verticalAlign=middle;whiteSpace=wrap;rounded=0;" vertex="1" parent="Z-0bPILdyS5AmYQFrGZD-1">
          <mxGeometry x="460" y="250" width="40" height="30" as="geometry" />
        </mxCell>
        <mxCell id="Z-0bPILdyS5AmYQFrGZD-20" value="PCF" style="text;html=1;strokeColor=none;fillColor=none;align=center;verticalAlign=middle;whiteSpace=wrap;rounded=0;" vertex="1" parent="Z-0bPILdyS5AmYQFrGZD-1">
          <mxGeometry x="540" y="220" width="40" height="30" as="geometry" />
        </mxCell>
        <mxCell id="Z-0bPILdyS5AmYQFrGZD-22" value="AAR" style="text;html=1;strokeColor=none;fillColor=none;align=center;verticalAlign=middle;whiteSpace=wrap;rounded=0;" vertex="1" parent="Z-0bPILdyS5AmYQFrGZD-1">
          <mxGeometry x="600" y="280" width="40" height="20" as="geometry" />
        </mxCell>
        <mxCell id="Z-0bPILdyS5AmYQFrGZD-23" value="AAA" style="text;html=1;strokeColor=none;fillColor=none;align=center;verticalAlign=middle;whiteSpace=wrap;rounded=0;" vertex="1" parent="Z-0bPILdyS5AmYQFrGZD-1">
          <mxGeometry x="600" y="370" width="40" height="20" as="geometry" />
        </mxCell>
        <mxCell id="Z-0bPILdyS5AmYQFrGZD-24" value="RAR" style="text;html=1;strokeColor=none;fillColor=none;align=center;verticalAlign=middle;whiteSpace=wrap;rounded=0;" vertex="1" parent="Z-0bPILdyS5AmYQFrGZD-1">
          <mxGeometry x="490" y="300" width="40" height="20" as="geometry" />
        </mxCell>
        <mxCell id="Z-0bPILdyS5AmYQFrGZD-25" value="RAA" style="text;html=1;strokeColor=none;fillColor=none;align=center;verticalAlign=middle;whiteSpace=wrap;rounded=0;" vertex="1" parent="Z-0bPILdyS5AmYQFrGZD-1">
          <mxGeometry x="490" y="340" width="40" height="30" as="geometry" />
        </mxCell>
        <mxCell id="Z-0bPILdyS5AmYQFrGZD-26" value="P CSCF" style="text;html=1;strokeColor=none;fillColor=none;align=center;verticalAlign=middle;whiteSpace=wrap;rounded=0;" vertex="1" parent="Z-0bPILdyS5AmYQFrGZD-1">
          <mxGeometry x="650" y="220" width="60" height="30" as="geometry" />
        </mxCell>
      </root>
    </mxGraphModel>
  </diagram>
</mxfile>
